<?xml version="1.0" encoding="utf-8"?>
<!-- Generator: Adobe Illustrator 19.2.0, SVG Export Plug-In . SVG Version: 6.00 Build 0)  -->
<svg version="1.1" id="Ebene_1" xmlns="http://www.w3.org/2000/svg" xmlns:xlink="http://www.w3.org/1999/xlink" x="0px" y="0px"
	 viewBox="0 0 63 63" style="enable-background:new 0 0 63 63;" xml:space="preserve">
<style type="text/css">
	.st0{fill:#FFFFFF;stroke:#000033;stroke-miterlimit:10;}
</style>
<polygon class="st0" points="5,11.8 0,11.8 0,0 11.8,0 11.8,5.1 5,5.1 "/>
<polygon class="st0" points="63,11.8 58,11.8 58,5.1 51.2,5.1 51.2,0 63,0 "/>
<g>
	<polygon class="st0" points="11.8,63 0,63 0,51.3 5,51.3 5,58 11.8,58 	"/>
</g>
<polygon class="st0" points="63,63 51.2,63 51.2,58 58,58 58,51.3 63,51.3 "/>
<polygon class="st0" points="43.8,24.4 38.6,19.2 31.5,26.3 24.4,19.2 19.2,24.4 26.3,31.5 19.2,38.7 24.4,43.9 31.5,36.8 
	38.6,43.9 43.8,38.7 36.7,31.5 "/>
</svg>
