<?xml version="1.0" encoding="utf-8"?>
<!-- Generator: Adobe Illustrator 19.1.0, SVG Export Plug-In . SVG Version: 6.00 Build 0)  -->
<svg version="1.1" id="Ebene_1" xmlns="http://www.w3.org/2000/svg" xmlns:xlink="http://www.w3.org/1999/xlink" x="0px" y="0px"
	 viewBox="0 0 157.5 62.5" style="enable-background:new 0 0 157.5 62.5;" xml:space="preserve">
<style type="text/css">
	.st0{fill:#FFFFFF;}
</style>
<path class="st0" d="M101.3,46.8h-4.1L93,57.7l-4.2-10.9h-4.2v15.7h3.6v-9.8l3.5,9.8h2.7l3.4-9.8v9.8h3.6V46.8z"/>
<g>
	<path class="st0" d="M153,36.2V23.6h-3.6v15.7h8.1v-3.1H153z M136.2,39.3h3.6V23.6h-3.6V30h-5.4v-6.4h-3.6v15.7h3.6v-6.2h5.4V39.3z
		 M105.6,34c0,3.2,2.4,5.8,6.1,5.8c3.8,0,6.1-2.5,6.1-5.8V23.6h-3.6v10.3c0,1.4-1,2.7-2.5,2.7c-1.5,0-2.5-1.2-2.5-2.7V23.6h-3.6V34z
		 M93.3,39.3h4.4l-6.2-7.9l6.2-7.9h-4.4l-5.1,6.7v-6.7h-3.6v15.7h3.6v-6.7L93.3,39.3z"/>
	<path class="st0" d="M88.4,0.4h-3.8v15.7h3.6V6l5.7,10.1h3.8V0.4h-3.6v10.2L88.4,0.4z"/>
</g>
<polygon class="st0" points="157.5,3.3 157.5,0.4 147.9,0.4 147.9,16.1 157.5,16.1 157.5,13.2 151.5,13.2 151.5,9.8 157.5,9.8 
	157.5,6.9 151.5,6.9 151.5,3.3 "/>
<polygon class="st0" points="137.1,16.1 140.8,16.1 140.8,3.6 144.4,3.6 144.4,0.4 133.6,0.4 133.6,3.6 137.1,3.6 "/>
<polygon class="st0" points="148.2,46.8 144.4,46.8 144.4,62.5 148,62.5 148,52.4 153.7,62.5 157.5,62.5 157.5,46.8 153.8,46.8 
	153.8,57.1 "/>
<polygon class="st0" points="128.9,46.8 125.1,46.8 125.1,62.5 128.8,62.5 128.8,52.4 134.4,62.5 138.2,62.5 138.2,46.8 134.6,46.8 
	134.6,57.1 "/>
<path class="st0" d="M114.8,46.8h-3.3l-5.6,15.7h3.9l0.6-1.9h5.6l0.6,1.9h4L114.8,46.8z M111.2,57.8l1.9-6.5l1.9,6.5H111.2z"/>
<polygon class="st0" points="126.3,13 126.3,0.4 122.6,0.4 122.6,16.1 130.7,16.1 130.7,13 "/>
<path class="st0" d="M110.2,0c-5.2,0-8.3,4-8.3,8.3c0,4.3,3.1,8.3,8.3,8.3c5.2,0,8.3-4,8.3-8.3C118.5,4,115.4,0,110.2,0z
	 M110.2,13.3c-2.9,0-4.6-2.4-4.6-5c0-2.6,1.7-5,4.6-5c2.9,0,4.6,2.4,4.6,5C114.8,10.9,113,13.3,110.2,13.3z"/>
<polygon class="st0" points="5,12.2 0,12.2 0,0.4 11.8,0.4 11.8,5.4 5,5.4 "/>
<polygon class="st0" points="66.9,12.2 61.9,12.2 61.9,5.4 55.1,5.4 55.1,0.4 66.9,0.4 "/>
<g>
	<polygon class="st0" points="11.8,62.5 0,62.5 0,50.7 5,50.7 5,57.5 11.8,57.5 	"/>
</g>
<polygon class="st0" points="66.9,62.5 55.1,62.5 55.1,57.5 61.9,57.5 61.9,50.7 66.9,50.7 "/>
</svg>
