<?xml version="1.0" encoding="utf-8"?>
<!-- Generator: Adobe Illustrator 19.1.0, SVG Export Plug-In . SVG Version: 6.00 Build 0)  -->
<svg version="1.1" id="Ebene_1" xmlns="http://www.w3.org/2000/svg" xmlns:xlink="http://www.w3.org/1999/xlink" x="0px" y="0px"
	 viewBox="0 0 108.2 100.9" style="enable-background:new 0 0 108.2 100.9;" xml:space="preserve">
<style type="text/css">
	.st0{fill:#FFFFFF;}
</style>
<path class="st0" d="M34.4,65.8h-4.1l-4.2,10.9l-4.2-10.9h-4.2v15.7h3.6v-9.8l3.5,9.8h2.7l3.4-9.8v9.8h3.6V65.8z"/>
<g>
	<path class="st0" d="M86.1,55.2V42.6h-3.6v15.7h8.1v-3.1H86.1z M69.3,58.3h3.6V42.6h-3.6V49h-5.4v-6.4h-3.6v15.7h3.6v-6.2h5.4V58.3
		z M38.7,53c0,3.2,2.4,5.8,6.1,5.8c3.8,0,6.1-2.5,6.1-5.8V42.6h-3.6v10.3c0,1.4-1,2.7-2.5,2.7s-2.5-1.2-2.5-2.7V42.6h-3.6V53z
		 M26.4,58.3h4.4l-6.2-7.9l6.2-7.9h-4.4l-5.1,6.7v-6.7h-3.6v15.7h3.6v-6.7L26.4,58.3z"/>
	<path class="st0" d="M21.5,19.4h-3.8v15.7h3.6V25L27,35.1h3.8V19.4h-3.6v10.2L21.5,19.4z"/>
</g>
<polygon class="st0" points="90.5,22.3 90.5,19.4 81,19.4 81,35.1 90.5,35.1 90.5,32.2 84.6,32.2 84.6,28.7 90.5,28.7 90.5,25.9 
	84.6,25.9 84.6,22.3 "/>
<polygon class="st0" points="70.2,35.1 73.9,35.1 73.9,22.5 77.4,22.5 77.4,19.4 66.7,19.4 66.7,22.5 70.2,22.5 "/>
<polygon class="st0" points="81.2,65.8 77.4,65.8 77.4,81.5 81.1,81.5 81.1,71.4 86.7,81.5 90.5,81.5 90.5,65.8 86.9,65.8 86.9,76 
	"/>
<polygon class="st0" points="62,65.8 58.2,65.8 58.2,81.5 61.9,81.5 61.9,71.4 67.5,81.5 71.3,81.5 71.3,65.8 67.7,65.8 67.7,76 "/>
<path class="st0" d="M47.9,65.8h-3.3l-5.6,15.7h3.9l0.6-1.9H49l0.6,1.9h4L47.9,65.8z M44.3,76.8l1.9-6.5l1.9,6.5H44.3z"/>
<polygon class="st0" points="59.4,32 59.4,19.4 55.7,19.4 55.7,35.1 63.8,35.1 63.8,32 "/>
<path class="st0" d="M43.2,19c-5.2,0-8.3,4-8.3,8.3c0,4.3,3.1,8.3,8.3,8.3c5.2,0,8.3-4,8.3-8.3C51.6,22.9,48.5,19,43.2,19z
	 M43.2,32.3c-2.9,0-4.6-2.4-4.6-5c0-2.6,1.7-5,4.6-5c2.9,0,4.6,2.4,4.6,5C47.8,29.8,46.1,32.3,43.2,32.3z"/>
</svg>
