<?xml version="1.0" standalone="no"?>
<!DOCTYPE svg PUBLIC "-//W3C//DTD SVG 20010904//EN"
 "http://www.w3.org/TR/2001/REC-SVG-20010904/DTD/svg10.dtd">
<svg version="1.0" xmlns="http://www.w3.org/2000/svg"
 width="600.000000pt" height="600.000000pt" viewBox="0 0 600.000000 600.000000"
 preserveAspectRatio="xMidYMid meet">
<metadata>
Created by potrace 1.11, written by Peter Selinger 2001-2013
</metadata>
<g transform="translate(0.000000,600.000000) scale(0.100000,-0.100000)"
fill="#000000" stroke="none">
<path d="M482 4563 l3 -958 388 0 387 0 1 35 c0 19 1 274 1 566 l0 532 557 0
c306 0 561 1 566 1 7 1 10 136 10 389 l0 387 -958 3 -957 2 2 -957z"/>
<path d="M3605 5136 c0 -211 3 -388 7 -392 4 -4 259 -8 565 -8 l558 -1 1 -558
c1 -307 5 -561 9 -565 3 -4 180 -7 391 -7 l384 0 0 957 0 958 -958 0 -957 0 0
-384z"/>
<path d="M484 2391 c-2 -2 -4 -433 -4 -958 l0 -953 958 0 957 0 0 390 c0 253
-4 390 -10 391 -5 0 -260 1 -565 2 l-555 2 0 562 c0 310 -2 564 -5 564 -14 4
-772 4 -776 0z"/>
<path d="M4730 1829 l0 -566 -547 -1 c-302 0 -557 -1 -568 -1 -20 -1 -20 -7
-18 -383 0 -211 2 -386 2 -390 1 -5 431 -8 956 -8 l955 0 0 98 c1 156 1 1681
1 1752 l-1 65 -390 0 -390 0 0 -566z"/>
</g>
</svg>
