<?xml version="1.0" encoding="utf-8"?>
<!-- Generator: Adobe Illustrator 19.1.0, SVG Export Plug-In . SVG Version: 6.00 Build 0)  -->
<svg version="1.1" id="Ebene_1" xmlns="http://www.w3.org/2000/svg" xmlns:xlink="http://www.w3.org/1999/xlink" x="0px" y="0px"
	 viewBox="54 -6.8 63 63" style="enable-background:new 54 -6.8 63 63;" xml:space="preserve">
<style type="text/css">
	.st0{fill:#FFFFFF;}
</style>
<polygon class="st0" points="59,5 54,5 54,-6.8 65.8,-6.8 65.8,-1.7 59,-1.7 "/>
<polygon class="st0" points="117,5 112,5 112,-1.7 105.2,-1.7 105.2,-6.8 117,-6.8 "/>
<g>
	<polygon class="st0" points="65.8,56.2 54,56.2 54,44.5 59,44.5 59,51.2 65.8,51.2 	"/>
</g>
<polygon class="st0" points="117,56.2 105.2,56.2 105.2,51.2 112,51.2 112,44.5 117,44.5 "/>
<g>
	<polygon class="st0" points="78.4,37.1 73.2,31.9 85.5,19.6 97.8,31.9 92.6,37.1 85.5,30 	"/>
	<polygon class="st0" points="92.6,12.4 97.8,17.6 85.5,29.9 73.2,17.6 78.4,12.4 85.5,19.5 	"/>
</g>
</svg>
